HIERARCHY
ROOT hips
{
  OFFSET 0 10.6860622 2.3727825e-15
  CHANNELS 6 Xposition Yposition Zposition Yrotation Xrotation Zrotation
  JOINT leftUpperLeg
  {
    OFFSET 0.6642549969 -0.9402397400000004 0
    CHANNELS 3 Yrotation Xrotation Zrotation
    JOINT leftLowerLeg
    {
      OFFSET 0 -3.997221335632195 0
      CHANNELS 3 Yrotation Xrotation Zrotation
      JOINT leftFoot
      {
        OFFSET -0.13777839790000004 -4.6145792000000005 -0.22186036399999998
        CHANNELS 3 Yrotation Xrotation Zrotation
        JOINT leftToes
        {
          OFFSET -0.03777410834999995 -0.9130806927000008 0.85230013
          CHANNELS 3 Yrotation Xrotation Zrotation
          End Site
          {
            OFFSET -0.03777410834999995 -0.9130806927000008 0.85230013
          }
        }
      }
    }
  }
  JOINT rightUpperLeg
  {
    OFFSET -0.6642778626 -0.9402397400000004 0
    CHANNELS 3 Yrotation Xrotation Zrotation
    JOINT rightLowerLeg
    {
      OFFSET 0 -3.997221452859387 0
      CHANNELS 3 Yrotation Xrotation Zrotation
      JOINT rightFoot
      {
        OFFSET 0.1377926176 -4.6145792000000005 -0.22185782299999995
        CHANNELS 3 Yrotation Xrotation Zrotation
        JOINT rightToes
        {
          OFFSET 0.037780746850000047 -0.9130806927000008 0.85230167
          CHANNELS 3 Yrotation Xrotation Zrotation
          End Site
          {
            OFFSET 0.037780746850000047 -0.9130806927000008 0.85230167
          }
        }
      }
    }
  }
  JOINT spine
  {
    OFFSET 0 0.13988381660000015 0
    CHANNELS 3 Yrotation Xrotation Zrotation
    JOINT chest
    {
      OFFSET 0 0.6191039003973773 0
      CHANNELS 3 Yrotation Xrotation Zrotation
      JOINT upperChest
      {
        OFFSET 0 0.9855186130586943 0
        CHANNELS 3 Yrotation Xrotation Zrotation
        JOINT leftShoulder
        {
          OFFSET 0.1807663869 1.5087829790000005 0
          CHANNELS 3 Yrotation Xrotation Zrotation
          JOINT leftUpperArm
          {
            OFFSET 0.5985063006419806 0 0
            CHANNELS 3 Yrotation Xrotation Zrotation
            JOINT leftLowerArm
            {
              OFFSET 2.2993332369501065 0 0
              CHANNELS 3 Yrotation Xrotation Zrotation
              JOINT leftHand
              {
                OFFSET 2.395047042602395 0 0
                CHANNELS 3 Yrotation Xrotation Zrotation
                JOINT leftIndexProximal
                {
                  OFFSET 0.5766295810000004 0.04556643899499946 0.17265095988184
                  CHANNELS 3 Yrotation Xrotation Zrotation
                  JOINT leftIndexIntermediate
                  {
                    OFFSET 0.2957229000000008 -0.019352197700001517 -0.007932640616999987
                    CHANNELS 3 Yrotation Xrotation Zrotation
                    JOINT leftIndexDistal
                    {
                      OFFSET 0.19008243099999922 -0.012484908149998475 -0.002786250786000012
                      CHANNELS 3 Yrotation Xrotation Zrotation
                      End Site
                      {
                        OFFSET 0.19008243099999922 -0.012484908149998475 -0.002786250786000012
                      }
                    }
                  }
                }
                JOINT leftMiddleProximal
                {
                  OFFSET 0.5834975091000001 0.0524350405149987 0.02204081888183999
                  CHANNELS 3 Yrotation Xrotation Zrotation
                  JOINT leftMiddleIntermediate
                  {
                    OFFSET 0.33880573540000003 -0.019871473270000717 -0.00000971183179999946
                    CHANNELS 3 Yrotation Xrotation Zrotation
                    JOINT leftMiddleDistal
                    {
                      OFFSET 0.20676022730000088 -0.012221336379999448 0.0001471936708000235
                      CHANNELS 3 Yrotation Xrotation Zrotation
                      End Site
                      {
                        OFFSET 0.20676022730000088 -0.012221336379999448 0.0001471936708000235
                      }
                    }
                  }
                }
                JOINT leftLittleProximal
                {
                  OFFSET 0.5344154683999995 -0.012880921405001189 -0.24414037221816004
                  CHANNELS 3 Yrotation Xrotation Zrotation
                  JOINT leftLittleIntermediate
                  {
                    OFFSET 0.21758961730000093 -0.011650919939999227 0.011893592810000034
                    CHANNELS 3 Yrotation Xrotation Zrotation
                    JOINT leftLittleDistal
                    {
                      OFFSET 0.1475273964999999 -0.008152365682999818 0.006001092492999946
                      CHANNELS 3 Yrotation Xrotation Zrotation
                      End Site
                      {
                        OFFSET 0.1475273964999999 -0.008152365682999818 0.006001092492999946
                      }
                    }
                  }
                }
                JOINT leftRingProximal
                {
                  OFFSET 0.5799399463000003 0.026911854694997794 -0.12150566991816003
                  CHANNELS 3 Yrotation Xrotation Zrotation
                  JOINT leftRingIntermediate
                  {
                    OFFSET 0.26167887460000006 -0.013480186499999602 0.010996293000000053
                    CHANNELS 3 Yrotation Xrotation Zrotation
                    JOINT leftRingDistal
                    {
                      OFFSET 0.17667108799999987 -0.008990287899999228 0.0055541023999999065
                      CHANNELS 3 Yrotation Xrotation Zrotation
                      End Site
                      {
                        OFFSET 0.17667108799999987 -0.008990287899999228 0.0055541023999999065
                      }
                    }
                  }
                }
                JOINT leftThumbProximal
                {
                  OFFSET 0.11018806699999972 -0.09448718900500053 0.17047963138184
                  CHANNELS 3 Yrotation Xrotation Zrotation
                  JOINT leftThumbIntermediate
                  {
                    OFFSET 0.31062601459999983 -0.08126270900000132 0.15443142000000007
                    CHANNELS 3 Yrotation Xrotation Zrotation
                    JOINT leftThumbDistal
                    {
                      OFFSET 0.21627175790000086 -0.08833193599999878 0.018771167799999988
                      CHANNELS 3 Yrotation Xrotation Zrotation
                      End Site
                      {
                        OFFSET 0.21627175790000086 -0.08833193599999878 0.018771167799999988
                      }
                    }
                  }
                }
              }
            }
          }
        }
        JOINT neck
        {
          OFFSET 0 1.5463305265074576 0
          CHANNELS 3 Yrotation Xrotation Zrotation
          JOINT head
          {
            OFFSET 0 0.8456443600000344 0
            CHANNELS 3 Yrotation Xrotation Zrotation
            JOINT leftEye
            {
              OFFSET 0.30408573140000006 0.5104519199999995 0.1276382305
              CHANNELS 3 Yrotation Xrotation Zrotation
              End Site
              {
                OFFSET 0.30408573140000006 0.5104519199999995 0.1276382305
              }
            }
            JOINT rightEye
            {
              OFFSET -0.30409491089999996 0.5104519199999995 0.1276379445
              CHANNELS 3 Yrotation Xrotation Zrotation
              End Site
              {
                OFFSET -0.30409491089999996 0.5104519199999995 0.1276379445
              }
            }
            JOINT jaw
            {
              OFFSET -3.155239131000001e-7 -0.11984121820000082 0.60178107
              CHANNELS 3 Yrotation Xrotation Zrotation
              End Site
              {
                OFFSET -3.155239131000001e-7 -0.11984121820000082 0.60178107
              }
            }
          }
        }
        JOINT rightShoulder
        {
          OFFSET -0.1807303465 1.5087829790000005 0
          CHANNELS 3 Yrotation Xrotation Zrotation
          JOINT rightUpperArm
          {
            OFFSET -0.5985063796536958 0 0
            CHANNELS 3 Yrotation Xrotation Zrotation
            JOINT rightLowerArm
            {
              OFFSET -2.2993322059002854 0 0
              CHANNELS 3 Yrotation Xrotation Zrotation
              JOINT rightHand
              {
                OFFSET -2.395045314457259 0 0
                CHANNELS 3 Yrotation Xrotation Zrotation
                JOINT rightIndexProximal
                {
                  OFFSET -0.5764487688300002 0.0441371204405987 0.17361932004999997
                  CHANNELS 3 Yrotation Xrotation Zrotation
                  JOINT rightIndexIntermediate
                  {
                    OFFSET -0.29573011380000047 -0.01934826376999843 -0.007698921482999974
                    CHANNELS 3 Yrotation Xrotation Zrotation
                    JOINT rightIndexDistal
                    {
                      OFFSET -0.19008373999999884 -0.012503266380000655 -0.0026365778999999897
                      CHANNELS 3 Yrotation Xrotation Zrotation
                      End Site
                      {
                        OFFSET -0.19008373999999884 -0.012503266380000655 -0.0026365778999999897
                      }
                    }
                  }
                }
                JOINT rightMiddleProximal
                {
                  OFFSET -0.5834852037300005 0.05211639405060153 0.02307162440000001
                  CHANNELS 3 Yrotation Xrotation Zrotation
                  JOINT rightMiddleIntermediate
                  {
                    OFFSET -0.33880114510000003 -0.019952774050000954 0.0002455003561999819
                    CHANNELS 3 Yrotation Xrotation Zrotation
                    JOINT rightMiddleDistal
                    {
                      OFFSET -0.20675694929999955 -0.012273788999999091 0.00030209124000002766
                      CHANNELS 3 Yrotation Xrotation Zrotation
                      End Site
                      {
                        OFFSET -0.20675694929999955 -0.012273788999999091 0.00030209124000002766
                      }
                    }
                  }
                }
                JOINT rightLittleProximal
                {
                  OFFSET -0.5346811737299992 -0.011214256288399227 -0.24363941305000003
                  CHANNELS 3 Yrotation Xrotation Zrotation
                  JOINT rightLittleIntermediate
                  {
                    OFFSET -0.21757715980000092 -0.011771559690000988 0.01201554387
                    CHANNELS 3 Yrotation Xrotation Zrotation
                    JOINT rightLittleDistal
                    {
                      OFFSET -0.1475201849000004 -0.00822055339600003 0.006082065407000015
                      CHANNELS 3 Yrotation Xrotation Zrotation
                      End Site
                      {
                        OFFSET -0.1475201849000004 -0.00822055339600003 0.006082065407000015
                      }
                    }
                  }
                }
                JOINT rightRingProximal
                {
                  OFFSET -0.5800810755299999 0.027657985680600072 -0.12066365025000003
                  CHANNELS 3 Yrotation Xrotation Zrotation
                  JOINT rightRingIntermediate
                  {
                    OFFSET -0.26166445029999974 -0.013623118409999302 0.011164098990000045
                    CHANNELS 3 Yrotation Xrotation Zrotation
                    JOINT rightRingDistal
                    {
                      OFFSET -0.17666387530000027 -0.009072900100000503 0.005668185599999959
                      CHANNELS 3 Yrotation Xrotation Zrotation
                      End Site
                      {
                        OFFSET -0.17666387530000027 -0.009072900100000503 0.005668185599999959
                      }
                    }
                  }
                }
                JOINT rightThumbProximal
                {
                  OFFSET -0.10997596379000074 -0.09577489355940072 0.16989765924999997
                  CHANNELS 3 Yrotation Xrotation Zrotation
                  JOINT rightThumbIntermediate
                  {
                    OFFSET -0.31036620999999986 -0.08229339117999834 0.15440884469999996
                    CHANNELS 3 Yrotation Xrotation Zrotation
                    JOINT rightThumbDistal
                    {
                      OFFSET -0.21631306399999906 -0.08825326400000111 0.018656797720000014
                      CHANNELS 3 Yrotation Xrotation Zrotation
                      End Site
                      {
                        OFFSET -0.21631306399999906 -0.08825326400000111 0.018656797720000014
                      }
                    }
                  }
                }
              }
            }
          }
        }
      }
    }
  }
}
MOTION
Frames: 7
Frame Time: 0.03333333333333333
0 11.682712981546562 0 0 0 0 0 0 -5.826343164929014 -0.3712483961610101 -3.6333298826370974 5.838118207697276 0 0 0 0 0 0 0 0 5.826343164929014 0.3712483961610101 -3.6333298826370974 -5.838118207697276 0 0 0 0 0 0 0 -4.610651315171937 0 0 3.0831277533083026 0 0 0 0 0 1.5275236235667615 0 0 0 0 0 0 0 0 0 0 0 0 0 0 0 0 0 0 0 0 0 0 0 0 0 0 0 0 0 0 0 0 0 0 0 0 0 0 0 0 0 0 0 0 0 0 0 0 0 0 0 0 0 0 0 0 1.5275236235667615 0 0 0 0 0 0 0 0 0 0 0 0 0 0 1.5275236235667615 0 0 0 0 0 0 0 0 0 0 0 0 0 0 0 0 0 0 0 0 0 0 0 0 0 0 0 0 0 0 0 0 0 0 0 0 0 0 0 0 0 0 0 0 0 0 0 0 0 0 0 0 0 0 0
0 0.5362874801256936 -3.758006843053711 0 -45.00094081339915 0 0.2802780827097373 -0.4761459183339134 4.072393651497156 0.21423635817270292 1.4373272451808974 4.839400698606339 1.0083325286301974 6.8313404146008 2.9333138881879397 0 0 0 -0.2820194968834335 -0.4763061131477533 -4.074164500604959 -0.2159447905903244 1.4371628420321811 -4.8412268554296345 -1.0102031126184388 6.8312836626382305 -2.9351841022074283 0 0 0 0 7.158402955819799 0 -0.32003194389109546 12.710957532892676 -0.16586132276524193 0 0 0 4.307071875631439 1.7044953392766529 0.4393354793839415 8.511298164595996 13.638529823048668 -36.752563131022235 -35.729077296628766 16.909730014103562 6.070665266373781 -0.9949604395499394 11.764136608938928 -3.5870112734524877 0 0 0 0 0 0 0 0 0 0 0 0 0 0 0 0 0 0 0 0 0 0 0 0 0 0 0 0 0 0 0 0 0 0 0 0 0 0 0 0 0 0 0 0 0 0 10.52669737302135 0 0 4.499283366431311 0 0 0 0 0 0 0 0 0 0 -4.308824284781171 1.7044215619350715 -0.4411328263737235 -8.513962363327218 13.63811514954944 36.743368120641314 35.72663160909497 16.910117296719307 -6.072802313269153 0.9929863935155334 11.764202887920742 3.585040922635672 0 0 0 0 0 0 0 0 0 0 0 0 0 0 0 0 0 0 0 0 0 0 0 0 0 0 0 0 0 0 0 0 0 0 0 0 0 0 0 0 0 0 0 0 0
0 -10.610138021295173 -7.516013686107422 0 -90 0 0.47455056865536854 -0.9933824279699685 13.969803587090254 0.7144132639633732 6.517209376161326 3.886640863075053 2.3959397165843432 13.60013783127389 6.052984300663472 0 0 0 -0.477964183141143 -0.9940057764771858 -13.973329277079158 -0.71800579516566 6.516892714342884 -3.8904557821445334 -2.3999415304151075 13.59987870232295 -6.0569886142113925 0 0 0 0 18.927457745865528 0 -0.6875376240611168 22.337634755913985 -0.3986482829029358 0 0 0 8.615746513576312 1.8479789763374102 0.8907658431622498 6.807780815043632 29.594470426738383 -75.1585239690339 -75.00284304833056 33.998487688640935 -0.0025197445137589243 -2.8513735774434754 23.436919075090522 -7.63582542954491 0 0 0 0 0 0 0 0 0 0 0 0 0 0 0 0 0 0 0 0 0 0 0 0 0 0 0 0 0 0 0 0 0 0 0 0 0 0 0 0 0 0 0 0 0 0 19.52587217553456 0 0 8.99856659418915 0 0 0 0 0 0 0 0 0 0 -8.619255327135386 1.8476827762986463 -0.8943543484208183 -6.8159848379891255 29.59560546933738 75.1383748363189 74.99735899869108 34.00071212629143 -0.00206144375390996 2.8468705339310736 23.437250349516916 7.63132420182974 0 0 0 0 0 0 0 0 0 0 0 0 0 0 0 0 0 0 0 0 0 0 0 0 0 0 0 0 0 0 0 0 0 0 0 0 0 0 0 0 0 0 0 0 0
0 -10.610138021295173 -7.516013686107422 0 -90 0 0.4456685410252365 -1.1112663165151175 13.924071248352487 0.7205734153254006 6.71449328055316 3.9450848952743836 2.3959397165843432 13.60013783127389 6.052984300663472 0 0 0 -0.4771765922345619 -0.9972841219174509 -13.971251564307602 -0.7219728210200181 6.647054244483673 -3.930946147846182 -2.3999415304151075 13.59987870232295 -6.0569886142113925 0 0 0 0 18.619959033920416 0 -0.6929309758558759 23.40617372146385 -0.4125695518028282 0 0 0 8.427244580764496 1.3605210681233653 1.1460485726862044 6.786928759190661 29.641569719862908 -75.40271495628693 -75.13393902988537 33.99778329552808 -0.14296245924604342 -2.820839962271993 23.24021200068363 -7.342048810068705 0 0 0 0 0 0 0 0 0 0 0 0 0 0 0 0 0 0 0 0 0 0 0 0 0 0 0 0 0 0 0 0 0 0 0 0 0 0 0 0 0 0 0 0 0 0 19.26294456517905 0 0 8.63163324705145 0 0 0 0 0 0 0 0 0 0 -8.432902156537649 1.356622815771582 -1.1140388050317878 -6.796887891887907 29.639756365730058 75.36535025551103 75.12150105537873 33.99983058292109 0.13136157304462676 2.8143357212368527 23.239868209124033 7.3413696718875485 0 0 0 0 0 0 0 0 0 0 0 0 0 0 0 0 0 0 0 0 0 0 0 0 0 0 0 0 0 0 0 0 0 0 0 0 0 0 0 0 0 0 0 0 0
0 -10.610138021295173 -7.516013686107422 0 -90 0 0.4168794397888725 -1.2291731636150793 13.878396016886196 0.7269387381688048 6.91177075883086 4.003574212428499 2.3959397165843432 13.600138709677598 6.052985174169887 0 0 0 -0.4763891064733529 -1.0005624706230483 -13.969173851352256 -0.7260335265541316 6.777212412532344 -3.971456294098995 -2.3999415304151075 13.59987870232295 -6.0569886142113925 0 0 0 0 18.312459575462125 0 -0.6986544681768433 24.474710605069905 -0.42671702624826596 0 0 0 8.236604628200581 0.8739100045823408 1.402891452900902 6.765836279367107 29.68859081105532 -75.64703930445418 -75.26503071481659 33.99681527943365 -0.28340150097543415 -2.791447430008414 23.04336215249907 -7.048817291650698 0 0 0 0 0 0 0 0 0 0 0 0 0 0 0 0 0 0 0 0 0 0 0 0 0 0 0 0 0 0 0 0 0 0 0 0 0 0 0 0 0 0 0 0 0 0 19.000017156228257 0 0 8.264699105934948 0 0 0 0 0 0 0 0 0 0 -8.244698797825503 0.8662832723223313 -1.3352828299093311 -6.7775815916061495 29.683840147996587 75.59244187205118 75.245638624073 33.99871012978476 0.26478041541292363 2.782934879393024 23.04233786057747 7.051963217444967 0 0 0 0 0 0 0 0 0 0 0 0 0 0 0 0 0 0 0 0 0 0 0 0 0 0 0 0 0 0 0 0 0 0 0 0 0 0 0 0 0 0 0 0 0
0 -10.610138021295173 -7.516013686107422 0 -90 0 0.3881810897451761 -1.3471097698320997 13.832773969930257 0.733510992760295 7.109070815326602 4.06211854850542 2.3959397165843432 13.600138709677598 6.052985174169887 0 0 0 -0.47560236626463703 -1.0038424236760348 -13.967124295997996 -0.7301879321506491 6.907376057903978 -4.011989743517769 -2.3999415304151075 13.59987870232295 -6.0569886142113925 0 0 0 0 18.004860767391634 0 -0.7047445929966308 25.54740124005315 -0.44116268360378474 0 0 0 8.043579885566675 0.3876030383535387 1.661625494346777 6.744497692662458 29.735535588751787 -75.89154543974213 -75.39613552606075 33.99557953023474 -0.4238398017488142 -2.7631800256159003 22.846297429054896 -6.756004912929539 0 0 0 0 0 0 0 0 0 0 0 0 0 0 0 0 0 0 0 0 0 0 0 0 0 0 0 0 0 0 0 0 0 0 0 0 0 0 0 0 0 0 0 0 0 0 18.736694953211153 0 0 7.896665675613346 0 0 0 0 0 0 0 0 0 0 -8.05441235688284 0.37613911160678126 -1.5583614753796597 -6.75806859198077 29.727858720304283 75.8196733940002 75.36979518738617 33.99735077633547 0.39820331163279504 2.7526517184105295 22.84458905816783 6.7629848113920685 0 0 0 0 0 0 0 0 0 0 0 0 0 0 0 0 0 0 0 0 0 0 0 0 0 0 0 0 0 0 0 0 0 0 0 0 0 0 0 0 0 0 0 0 0
0 -10.610138021295173 -7.516013686107422 0 -90 0 0.35957526370723764 -1.4650690593065474 13.787208662886046 0.7402893413685866 7.306363971604354 4.120711539114921 2.3959397165843432 13.60013783127389 6.052984300663472 0 0 0 -0.4748156778367693 -1.0071224867572506 -13.96507391211177 -0.7344362427158189 7.037536394330956 -4.0525434442360915 -2.3999415304151075 13.59987870232295 -6.0569886142113925 0 0 0 0 17.69726183276951 0 -0.7111932579140278 26.620093751631693 -0.4558688510822732 0 0 0 7.848364599876007 -0.09782459815197325 1.9219908581073981 6.722918057102554 29.78240397736814 -76.13618648514186 -75.52723492937392 33.99407605961349 -0.5642720266153604 -2.7360450054137457 22.649101551612112 -6.463719552786459 0 0 0 0 0 0 0 0 0 0 0 0 0 0 0 0 0 0 0 0 0 0 0 0 0 0 0 0 0 0 0 0 0 0 0 0 0 0 0 0 0 0 0 0 0 0 18.473373932813786 0 0 7.528631737998156 0 0 0 0 0 0 0 0 0 0 -7.862221716384014 -0.11325779032722416 -1.7830622977990422 -6.738345719126555 29.771808088451383 76.0470218191151 75.49394429108447 33.99575253404052 0.5316200032612705 2.7234933632338807 22.646701815803596 6.4745375438003245 0 0 0 0 0 0 0 0 0 0 0 0 0 0 0 0 0 0 0 0 0 0 0 0 0 0 0 0 0 0 0 0 0 0 0 0 0 0 0 0 0 0 0 0 0
